<?xml version="1.0" encoding="iso-8859-1"?>
<!-- Generator: Adobe Illustrator 19.0.0, SVG Export Plug-In . SVG Version: 6.00 Build 0)  -->
<svg version="1.1" id="Capa_1" xmlns="http://www.w3.org/2000/svg" xmlns:xlink="http://www.w3.org/1999/xlink" x="0px" y="0px"
	 viewBox="0 0 512 512" style="enable-background:new 0 0 512 512;" xml:space="preserve">
<circle style="fill:#3C3A41;" cx="256" cy="256" r="256"/>
<path style="fill:#57555C;" d="M74.981,437.02c99.974,99.974,262.064,99.974,362.039,0L74.981,74.98
	C-24.994,174.955-24.994,337.045,74.981,437.02z"/>
<path style="fill:#CAE8F9;" d="M256,31c-62.1,0-118.2,25.199-159,66c-40.8,40.8-66,96.899-66,159c0,124.2,100.8,226,225,226
	c62.1,0,118.2-26.201,159-67s66-96.899,66-159C481,131.8,380.201,31,256,31z"/>
<g>
	<path style="fill:#B7E0F6;" d="M415,415c-40.8,40.8-96.899,67-159,67C131.8,482,31,380.2,31,256c0-62.1,25.201-118.2,66-159
		L415,415z"/>
	<path style="fill:#B7E0F6;" d="M406,256c0,41.4-16.8,78.9-43.801,106.199C334.9,389.2,297.4,406,256,406c-82.8,0-150-67.2-150-150
		c0-41.4,16.8-78.9,43.801-106.201C177.1,122.8,214.6,106,256,106s78.9,16.8,106.199,43.799C389.2,177.1,406,214.6,406,256z"/>
</g>
<path style="fill:#A4D9F5;" d="M362.199,362.199C334.9,389.2,297.4,406,256,406c-82.8,0-150-67.2-150-150
	c0-41.4,16.8-78.9,43.801-106.201L362.199,362.199z"/>
<path style="fill:#1689FC;" d="M393.999,393.999c-2.999,2.701-6.899,4.2-10.8,4.2c-2.1,0-4.499-0.3-6.599-1.5l-110.7-54
	c-7.5-3.602-10.501-12.601-6.901-20.101l63.6-63.6c7.5-3.6,16.501-0.601,20.101,6.899l54,110.7
	C399.699,382.299,398.5,389.5,393.999,393.999z"/>
<path style="fill:#FD003A;" d="M253.001,189.399l-63.6,63.6c-2.1,0.901-4.501,1.501-6.601,1.501c-5.4,0-10.8-3.001-13.5-8.401
	l-54-110.7c-2.999-5.7-1.8-12.9,2.701-17.401c4.799-4.499,11.699-5.4,17.399-2.699l110.7,54
	C253.6,172.899,256.601,181.899,253.001,189.399z"/>
<path style="fill:#FD3C65;" d="M118.001,117.999l103.2,103.2l-31.8,31.8c-2.1,0.901-4.501,1.501-6.601,1.501
	c-5.4,0-10.8-3.001-13.5-8.401l-54-110.7C112.301,129.699,113.5,122.5,118.001,117.999z"/>
<path style="fill:#17ACE8;" d="M393.999,393.999c-2.999,2.701-6.899,4.2-10.8,4.2c-2.1,0-4.499-0.3-6.599-1.5l-110.7-54
	c-7.5-3.602-10.501-12.601-6.901-20.101l31.8-31.8L393.999,393.999z"/>
<path style="fill:#3C3A41;" d="M256,61c-8.291,0-15-6.709-15-15V15c0-8.291,6.709-15,15-15c8.291,0,15,6.709,15,15v31
	C271,54.291,264.291,61,256,61z"/>
<g>
	<path style="fill:#57555C;" d="M256,512c-8.291,0-15-6.709-15-15v-31c0-8.291,6.709-15,15-15c8.291,0,15,6.709,15,15v31
		C271,505.291,264.291,512,256,512z"/>
	<path style="fill:#57555C;" d="M61,256c0,8.291-6.709,15-15,15H15c-8.291,0-15-6.709-15-15s6.709-15,15-15h31
		C54.291,241,61,247.709,61,256z"/>
</g>
<path style="fill:#3C3A41;" d="M512,256c0,8.291-6.709,15-15,15h-31c-8.291,0-15-6.709-15-15s6.709-15,15-15h31
	C505.291,241,512,247.709,512,256z"/>
<path style="fill:#57555C;" d="M118.114,393.886c5.863,5.863,5.863,15.351,0,21.213l-21.92,21.92
	c-5.863,5.863-15.351,5.863-21.213,0c-5.863-5.863-5.863-15.351,0-21.213l21.92-21.92
	C102.764,388.023,112.252,388.023,118.114,393.886z"/>
<g>
	<path style="fill:#3C3A41;" d="M437.019,74.981c5.863,5.863,5.863,15.351,0,21.213l-21.92,21.92
		c-5.863,5.863-15.351,5.863-21.213,0c-5.863-5.863-5.863-15.351,0-21.213l21.92-21.92
		C421.669,69.118,431.157,69.118,437.019,74.981z"/>
	<path style="fill:#3C3A41;" d="M393.886,393.886c5.863-5.863,15.351-5.863,21.213,0l21.92,21.92c5.863,5.863,5.863,15.351,0,21.213
		c-5.863,5.863-15.351,5.863-21.213,0l-21.92-21.92C388.023,409.236,388.023,399.748,393.886,393.886z"/>
</g>
<path style="fill:#57555C;" d="M393.886,415.099l21.92,21.92c5.863,5.862,15.351,5.862,21.213,0l-43.134-43.134
	C388.023,399.749,388.023,409.236,393.886,415.099z"/>
<path style="fill:#3C3A41;" d="M74.981,74.981c5.863-5.863,15.351-5.863,21.213,0l21.92,21.92c5.863,5.863,5.863,15.351,0,21.213
	c-5.863,5.863-15.351,5.863-21.213,0l-21.92-21.92C69.118,90.331,69.118,80.843,74.981,74.981z"/>
<path style="fill:#57555C;" d="M74.981,96.194l21.92,21.92c5.863,5.862,15.351,5.862,21.213,0L74.981,74.98
	C69.118,80.843,69.118,90.331,74.981,96.194z"/>
<path style="fill:#3C3A41;" d="M319.6,192.4c-33.9-33.9-93.3-33.9-127.2,0C175.3,209.2,166,232,166,256s9.3,46.8,26.4,63.6
	C209.2,336.7,232,346,256,346s46.8-9.3,63.6-26.4C336.7,302.8,346,280,346,256S336.7,209.2,319.6,192.4z"/>
<path style="fill:#57555C;" d="M319.6,319.6C302.8,336.7,280,346,256,346s-46.8-9.3-63.6-26.4C175.3,302.8,166,280,166,256
	s9.3-46.8,26.4-63.6L319.6,319.6z"/>
<path style="fill:#B7E0F6;" d="M298.299,213.699C287.199,202.299,271.901,196,256,196s-31.199,6.299-42.299,17.699
	C202.301,224.799,196,240.099,196,256c0,15.899,6.301,31.199,17.701,42.299c22.5,22.8,62.098,22.8,84.598,0
	c11.4-11.1,17.701-26.4,17.701-42.299C316,240.099,309.699,224.799,298.299,213.699z"/>
<path style="fill:#CAE8F9;" d="M298.299,298.299c-22.5,22.8-62.098,22.8-84.598,0C202.301,287.199,196,271.899,196,256
	c0-15.901,6.301-31.201,17.701-42.301L298.299,298.299z"/>
<g>
</g>
<g>
</g>
<g>
</g>
<g>
</g>
<g>
</g>
<g>
</g>
<g>
</g>
<g>
</g>
<g>
</g>
<g>
</g>
<g>
</g>
<g>
</g>
<g>
</g>
<g>
</g>
<g>
</g>
</svg>
