<?xml version="1.0" encoding="iso-8859-1"?>
<!-- Generator: Adobe Illustrator 19.0.0, SVG Export Plug-In . SVG Version: 6.00 Build 0)  -->
<svg version="1.1" id="Layer_1" xmlns="http://www.w3.org/2000/svg" xmlns:xlink="http://www.w3.org/1999/xlink" x="0px" y="0px"
	 viewBox="0 0 496 496" style="enable-background:new 0 0 496 496;" xml:space="preserve">
<path style="fill:#ACC1BF;" d="M480,436c0,24-20,44-44,44H60c-24,0-44-20-44-44V60c0-24.8,19.2-44,44-44h376c24,0,44,20,44,44V436z"
	/>
<path style="fill:#9CB5B2;" d="M16,60c0-24.8,19.2-44,44-44h376c24,0,44,20,44,44v376c0,24-20,44-44,44"/>
<path style="fill:#53777C;" d="M436,496H60c-32.8,0-60-27.2-60-60V60C0,27.2,27.2,0,60,0h376c32.8,0,60,27.2,60,60v376
	C496,468.8,468.8,496,436,496z M60,31.2C44,31.2,31.2,44,31.2,60v376c0,16,12.8,28.8,28.8,28.8h376c16,0,28.8-12.8,28.8-28.8V60
	c0-16-12.8-28.8-28.8-28.8H60z"/>
<path id="SVGCleanerId_0" style="fill:#73918B;" d="M121.6,228.8c0,5.6-4.8,9.6-9.6,9.6l0,0c-5.6,0-9.6-4.8-9.6-9.6V120
	c0-5.6,4.8-9.6,9.6-9.6l0,0c5.6,0,9.6,4.8,9.6,9.6V228.8z"/>
<g>
	<path style="fill:#73918B;" d="M227.2,228.8c0,5.6-4.8,9.6-9.6,9.6l0,0c-5.6,0-9.6-4.8-9.6-9.6V120c0-5.6,4.8-9.6,9.6-9.6l0,0
		c5.6,0,9.6,4.8,9.6,9.6V228.8z"/>
	<path style="fill:#73918B;" d="M196.8,90.4c5.6,0,9.6,4.8,9.6,9.6l0,0c0,5.6-4.8,9.6-9.6,9.6h-64c-5.6,0-9.6-4.8-9.6-9.6l0,0
		c0-5.6,4.8-9.6,9.6-9.6H196.8z"/>
	<path style="fill:#73918B;" d="M196.8,238.4c5.6,0,9.6,4.8,9.6,9.6l0,0c0,5.6-4.8,9.6-9.6,9.6h-64c-5.6,0-9.6-4.8-9.6-9.6l0,0
		c0-5.6,4.8-9.6,9.6-9.6H196.8z"/>
	<path style="fill:#73918B;" d="M121.6,376c0,5.6-4.8,9.6-9.6,9.6l0,0c-5.6,0-9.6-4.8-9.6-9.6V267.2c0-5.6,4.8-9.6,9.6-9.6l0,0
		c5.6,0,9.6,4.8,9.6,9.6V376z"/>
</g>
<path id="SVGCleanerId_1" style="fill:#73918B;" d="M227.2,376c0,5.6-4.8,9.6-9.6,9.6l0,0c-5.6,0-9.6-4.8-9.6-9.6V267.2
	c0-5.6,4.8-9.6,9.6-9.6l0,0c5.6,0,9.6,4.8,9.6,9.6V376z"/>
<g>
	<path style="fill:#73918B;" d="M196.8,385.6c5.6,0,9.6,4.8,9.6,9.6l0,0c0,5.6-4.8,9.6-9.6,9.6h-64c-5.6,0-9.6-4.8-9.6-9.6l0,0
		c0-5.6,4.8-9.6,9.6-9.6H196.8z"/>
	<path style="fill:#73918B;" d="M288.8,228.8c0,5.6-4.8,9.6-9.6,9.6l0,0c-5.6,0-9.6-4.8-9.6-9.6V120c0-5.6,4.8-9.6,9.6-9.6l0,0
		c5.6,0,9.6,4.8,9.6,9.6V228.8z"/>
</g>
<path id="SVGCleanerId_2" style="fill:#73918B;" d="M394.4,228.8c0,5.6-4.8,9.6-9.6,9.6l0,0c-5.6,0-9.6-4.8-9.6-9.6V120
	c0-5.6,4.8-9.6,9.6-9.6l0,0c5.6,0,9.6,4.8,9.6,9.6V228.8z"/>
<g>
	<path style="fill:#73918B;" d="M364,90.4c5.6,0,9.6,4.8,9.6,9.6l0,0c0,5.6-4.8,9.6-9.6,9.6h-64c-5.6,0-9.6-4.8-9.6-9.6l0,0
		c0-5.6,4.8-9.6,9.6-9.6H364z"/>
	<path style="fill:#73918B;" d="M364,238.4c5.6,0,9.6,4.8,9.6,9.6l0,0c0,5.6-4.8,9.6-9.6,9.6h-64c-5.6,0-9.6-4.8-9.6-9.6l0,0
		c0-5.6,4.8-9.6,9.6-9.6H364z"/>
</g>
<path id="SVGCleanerId_3" style="fill:#73918B;" d="M288.8,376c0,5.6-4.8,9.6-9.6,9.6l0,0c-5.6,0-9.6-4.8-9.6-9.6V267.2
	c0-5.6,4.8-9.6,9.6-9.6l0,0c5.6,0,9.6,4.8,9.6,9.6V376z"/>
<g>
	<path style="fill:#73918B;" d="M394.4,376c0,5.6-4.8,9.6-9.6,9.6l0,0c-5.6,0-9.6-4.8-9.6-9.6V267.2c0-5.6,4.8-9.6,9.6-9.6l0,0
		c5.6,0,9.6,4.8,9.6,9.6V376z"/>
	<path style="fill:#73918B;" d="M364,385.6c5.6,0,9.6,4.8,9.6,9.6l0,0c0,5.6-4.8,9.6-9.6,9.6h-64c-5.6,0-9.6-4.8-9.6-9.6l0,0
		c0-5.6,4.8-9.6,9.6-9.6H364z"/>
</g>
<g>
	<path id="SVGCleanerId_0_1_" style="fill:#73918B;" d="M121.6,228.8c0,5.6-4.8,9.6-9.6,9.6l0,0c-5.6,0-9.6-4.8-9.6-9.6V120
		c0-5.6,4.8-9.6,9.6-9.6l0,0c5.6,0,9.6,4.8,9.6,9.6V228.8z"/>
</g>
<g>
	<path style="fill:#062B24;" d="M227.2,228.8c0,5.6-4.8,9.6-9.6,9.6l0,0c-5.6,0-9.6-4.8-9.6-9.6V120c0-5.6,4.8-9.6,9.6-9.6l0,0
		c5.6,0,9.6,4.8,9.6,9.6V228.8z"/>
	<path style="fill:#062B24;" d="M196.8,90.4c5.6,0,9.6,4.8,9.6,9.6l0,0c0,5.6-4.8,9.6-9.6,9.6h-64c-5.6,0-9.6-4.8-9.6-9.6l0,0
		c0-5.6,4.8-9.6,9.6-9.6H196.8z"/>
	<path style="fill:#062B24;" d="M196.8,238.4c5.6,0,9.6,4.8,9.6,9.6l0,0c0,5.6-4.8,9.6-9.6,9.6h-64c-5.6,0-9.6-4.8-9.6-9.6l0,0
		c0-5.6,4.8-9.6,9.6-9.6H196.8z"/>
	<path style="fill:#062B24;" d="M121.6,376c0,5.6-4.8,9.6-9.6,9.6l0,0c-5.6,0-9.6-4.8-9.6-9.6V267.2c0-5.6,4.8-9.6,9.6-9.6l0,0
		c5.6,0,9.6,4.8,9.6,9.6V376z"/>
</g>
<g>
	<path id="SVGCleanerId_1_1_" style="fill:#73918B;" d="M227.2,376c0,5.6-4.8,9.6-9.6,9.6l0,0c-5.6,0-9.6-4.8-9.6-9.6V267.2
		c0-5.6,4.8-9.6,9.6-9.6l0,0c5.6,0,9.6,4.8,9.6,9.6V376z"/>
</g>
<g>
	<path style="fill:#062B24;" d="M196.8,385.6c5.6,0,9.6,4.8,9.6,9.6l0,0c0,5.6-4.8,9.6-9.6,9.6h-64c-5.6,0-9.6-4.8-9.6-9.6l0,0
		c0-5.6,4.8-9.6,9.6-9.6H196.8z"/>
	<path style="fill:#062B24;" d="M288.8,228.8c0,5.6-4.8,9.6-9.6,9.6l0,0c-5.6,0-9.6-4.8-9.6-9.6V120c0-5.6,4.8-9.6,9.6-9.6l0,0
		c5.6,0,9.6,4.8,9.6,9.6V228.8z"/>
</g>
<g>
	<path id="SVGCleanerId_2_1_" style="fill:#73918B;" d="M394.4,228.8c0,5.6-4.8,9.6-9.6,9.6l0,0c-5.6,0-9.6-4.8-9.6-9.6V120
		c0-5.6,4.8-9.6,9.6-9.6l0,0c5.6,0,9.6,4.8,9.6,9.6V228.8z"/>
</g>
<g>
	<path style="fill:#062B24;" d="M364,90.4c5.6,0,9.6,4.8,9.6,9.6l0,0c0,5.6-4.8,9.6-9.6,9.6h-64c-5.6,0-9.6-4.8-9.6-9.6l0,0
		c0-5.6,4.8-9.6,9.6-9.6H364z"/>
	<path style="fill:#062B24;" d="M364,238.4c5.6,0,9.6,4.8,9.6,9.6l0,0c0,5.6-4.8,9.6-9.6,9.6h-64c-5.6,0-9.6-4.8-9.6-9.6l0,0
		c0-5.6,4.8-9.6,9.6-9.6H364z"/>
</g>
<g>
	<path id="SVGCleanerId_3_1_" style="fill:#73918B;" d="M288.8,376c0,5.6-4.8,9.6-9.6,9.6l0,0c-5.6,0-9.6-4.8-9.6-9.6V267.2
		c0-5.6,4.8-9.6,9.6-9.6l0,0c5.6,0,9.6,4.8,9.6,9.6V376z"/>
</g>
<g>
	<path style="fill:#062B24;" d="M394.4,376c0,5.6-4.8,9.6-9.6,9.6l0,0c-5.6,0-9.6-4.8-9.6-9.6V267.2c0-5.6,4.8-9.6,9.6-9.6l0,0
		c5.6,0,9.6,4.8,9.6,9.6V376z"/>
	<path style="fill:#062B24;" d="M364,385.6c5.6,0,9.6,4.8,9.6,9.6l0,0c0,5.6-4.8,9.6-9.6,9.6h-64c-5.6,0-9.6-4.8-9.6-9.6l0,0
		c0-5.6,4.8-9.6,9.6-9.6H364z"/>
</g>
<g>
</g>
<g>
</g>
<g>
</g>
<g>
</g>
<g>
</g>
<g>
</g>
<g>
</g>
<g>
</g>
<g>
</g>
<g>
</g>
<g>
</g>
<g>
</g>
<g>
</g>
<g>
</g>
<g>
</g>
</svg>
